<?xml version="1.0" standalone="no"?>
<!DOCTYPE svg PUBLIC "-//W3C//DTD SVG 20010904//EN"
 "http://www.w3.org/TR/2001/REC-SVG-20010904/DTD/svg10.dtd">
<svg version="1.0" xmlns="http://www.w3.org/2000/svg"
 width="1024.000000pt" height="1024.000000pt" viewBox="0 0 1024.000000 1024.000000"
 preserveAspectRatio="xMidYMid meet">

<g transform="translate(0.000000,1024.000000) scale(0.100000,-0.100000)"
fill="#000000" stroke="none">
<path d="M4940 10103 c-36 -8 -74 -15 -85 -17 -11 -1 -30 -8 -42 -14 -12 -7
-29 -12 -39 -12 -25 0 -314 -172 -314 -187 0 -7 -13 -19 -30 -28 -16 -9 -30
-22 -30 -30 0 -8 -9 -19 -20 -25 -11 -6 -20 -17 -20 -25 0 -7 -9 -17 -20 -20
-11 -3 -20 -11 -20 -16 0 -5 -9 -9 -20 -9 -11 0 -20 4 -20 10 0 5 -6 7 -13 4
-7 -2 -43 11 -81 31 -37 19 -76 35 -87 35 -10 0 -19 5 -19 10 0 6 -13 10 -30
10 -16 0 -30 5 -30 10 0 6 -13 10 -29 10 -17 0 -33 5 -36 10 -3 6 -30 10 -59
10 -28 0 -56 4 -61 9 -16 15 -223 19 -274 5 -56 -14 -125 -41 -169 -66 -18
-10 -39 -18 -47 -18 -8 0 -15 -4 -15 -8 0 -4 -12 -13 -27 -19 -37 -16 -64 -34
-84 -55 -9 -10 -21 -18 -28 -18 -6 0 -11 -4 -11 -10 0 -5 -5 -10 -11 -10 -12
0 -62 -50 -124 -125 -22 -27 -50 -59 -62 -72 -13 -13 -23 -30 -23 -38 0 -7 -4
-15 -9 -17 -12 -4 -71 -124 -71 -143 0 -8 -4 -15 -10 -15 -5 0 -10 -11 -10
-24 0 -32 -35 -57 -64 -46 -71 27 -293 36 -391 15 -67 -14 -201 -58 -216 -71
-8 -8 -23 -14 -32 -14 -9 0 -17 -4 -17 -10 0 -5 -9 -10 -20 -10 -11 0 -25 -9
-32 -20 -7 -11 -20 -20 -29 -20 -8 0 -25 -11 -36 -24 -11 -13 -25 -25 -29 -27
-5 -2 -52 -53 -105 -114 -97 -112 -149 -184 -149 -208 0 -7 -12 -24 -26 -38
-14 -13 -32 -40 -40 -59 -9 -19 -20 -43 -25 -52 -5 -10 -9 -29 -9 -42 0 -14
-4 -27 -9 -30 -12 -8 -21 -70 -29 -201 l-7 -110 -60 -6 c-91 -10 -137 -20
-173 -41 -18 -10 -37 -18 -43 -18 -20 0 -144 -63 -152 -76 -4 -8 -14 -14 -21
-14 -26 0 -262 -252 -300 -318 -50 -91 -66 -124 -66 -137 0 -8 -4 -15 -10 -15
-5 0 -10 -11 -10 -25 0 -14 -4 -25 -10 -25 -5 0 -10 -13 -10 -30 0 -16 -4 -30
-10 -30 -5 0 -10 -18 -10 -39 0 -22 -4 -43 -10 -46 -14 -8 -14 -345 0 -345 6
0 10 -18 10 -40 0 -22 5 -40 10 -40 6 0 10 -13 10 -29 0 -16 4 -31 8 -33 5 -1
12 -22 16 -45 5 -35 3 -43 -9 -43 -18 0 -19 -12 -4 -27 16 -16 1 -53 -22 -53
-10 0 -19 -4 -19 -10 0 -5 -7 -10 -15 -10 -8 0 -15 -4 -15 -10 0 -5 -7 -10
-15 -10 -14 0 -25 -7 -88 -62 -18 -15 -37 -28 -44 -28 -6 0 -13 -4 -15 -9 -2
-5 -30 -39 -63 -76 -55 -63 -73 -86 -92 -125 -4 -8 -20 -34 -35 -56 -15 -23
-28 -49 -28 -57 0 -9 -4 -19 -10 -22 -5 -3 -10 -17 -10 -31 0 -13 -4 -24 -10
-24 -5 0 -10 -13 -10 -28 0 -15 -6 -34 -12 -41 -18 -18 -18 -463 0 -469 6 -2
12 -12 12 -23 0 -27 23 -99 32 -99 5 0 8 -9 8 -20 0 -11 5 -20 10 -20 6 0 10
-9 10 -20 0 -11 5 -20 10 -20 6 0 10 -9 10 -20 0 -11 5 -20 10 -20 6 0 10 -6
10 -13 0 -8 9 -22 20 -32 11 -10 20 -24 20 -31 0 -8 29 -43 65 -79 36 -35 65
-67 65 -70 0 -4 -26 -32 -59 -64 -32 -32 -61 -67 -65 -78 -4 -11 -15 -28 -26
-38 -11 -10 -20 -24 -20 -32 0 -7 -4 -13 -10 -13 -5 0 -10 -9 -10 -20 0 -11
-4 -20 -10 -20 -5 0 -10 -9 -10 -20 0 -11 -4 -20 -10 -20 -5 0 -10 -8 -10 -18
0 -10 -4 -22 -8 -27 -5 -6 -14 -30 -21 -55 -7 -25 -18 -54 -24 -65 -17 -29
-22 -370 -7 -431 6 -27 14 -64 17 -81 3 -18 8 -33 12 -33 4 0 14 -23 21 -50 7
-28 17 -50 22 -50 4 0 8 -6 8 -14 0 -7 7 -20 16 -27 9 -7 20 -22 25 -34 37
-79 144 -194 270 -288 33 -25 118 -70 151 -81 19 -6 25 -46 8 -46 -5 0 -10 -8
-10 -18 0 -10 -4 -22 -8 -28 -5 -5 -14 -29 -21 -54 -7 -25 -17 -53 -22 -62 -5
-10 -9 -31 -9 -47 0 -17 -5 -33 -10 -36 -13 -8 -13 -342 0 -350 6 -3 10 -22
10 -41 0 -19 5 -34 10 -34 6 0 10 -13 10 -30 0 -16 5 -30 10 -30 6 0 10 -13
10 -30 0 -16 5 -30 10 -30 6 0 10 -9 10 -20 0 -11 3 -20 8 -20 4 0 14 -15 22
-33 7 -17 22 -41 32 -51 10 -11 18 -23 18 -28 0 -8 9 -20 74 -97 60 -70 182
-162 281 -210 50 -24 98 -47 107 -52 10 -5 27 -9 38 -9 11 0 28 -4 38 -9 29
-15 110 -31 156 -31 l43 0 1 -142 c2 -129 8 -176 32 -233 5 -11 14 -41 21 -68
8 -26 17 -47 21 -47 4 0 8 -7 8 -16 0 -22 51 -134 60 -134 4 0 13 -13 20 -30
7 -16 16 -30 21 -30 4 0 11 -9 14 -20 3 -11 13 -20 21 -20 8 0 13 -4 10 -8 -6
-9 48 -72 61 -72 5 0 14 -9 20 -20 12 -19 155 -115 203 -136 30 -13 71 -31
103 -43 12 -5 35 -14 50 -20 15 -6 38 -11 50 -11 13 0 27 -4 32 -9 22 -21 208
-28 310 -12 130 20 145 23 145 33 0 18 33 3 36 -17 4 -27 26 -98 34 -110 4 -5
15 -34 24 -62 10 -29 21 -53 25 -53 4 0 15 -16 24 -36 18 -37 76 -116 90 -122
4 -2 7 -10 7 -18 0 -8 4 -14 8 -14 5 0 38 -28 73 -62 76 -74 119 -108 137
-108 6 0 12 -4 12 -9 0 -11 98 -61 121 -61 10 0 19 -4 19 -10 0 -5 14 -10 30
-10 17 0 30 -4 30 -10 0 -5 16 -10 35 -10 19 0 35 -4 35 -10 0 -5 25 -10 55
-10 30 0 55 -4 55 -10 0 -6 38 -10 95 -10 57 0 95 4 95 10 0 6 25 10 55 10 30
0 55 5 55 10 0 6 15 10 34 10 54 0 214 67 301 127 11 7 24 13 30 13 9 0 53
-59 64 -85 2 -5 14 -18 27 -28 13 -9 26 -26 29 -37 4 -11 13 -20 21 -20 8 0
17 -7 20 -15 4 -8 10 -15 16 -15 5 0 19 -10 31 -23 22 -22 49 -41 77 -54 8 -4
20 -11 25 -15 34 -28 89 -58 105 -58 10 0 20 -4 22 -8 2 -5 50 -19 108 -31 58
-13 134 -30 169 -37 91 -20 225 -9 417 34 61 14 298 151 358 208 32 30 62 54
67 54 5 0 9 5 9 12 0 6 17 27 38 45 32 30 42 34 76 29 21 -2 42 -8 45 -13 3
-4 16 -14 29 -20 12 -7 32 -19 45 -25 12 -7 24 -16 27 -19 22 -24 268 -76 335
-70 80 7 125 15 125 22 0 5 27 9 60 9 33 0 60 4 60 10 0 6 16 10 35 10 19 0
35 5 35 10 0 6 14 10 30 10 17 0 30 5 30 10 0 6 9 10 20 10 11 0 20 5 20 10 0
6 11 10 24 10 14 0 28 5 31 10 4 6 11 8 16 5 5 -4 9 -1 9 4 0 6 7 11 15 11 8
0 15 5 15 10 0 6 7 10 15 10 8 0 15 5 15 10 0 6 6 10 13 10 6 0 57 47 112 103
127 131 155 164 155 182 0 8 5 15 10 15 6 0 10 9 10 20 0 11 5 20 10 20 6 0
10 9 10 20 0 11 5 20 10 20 6 0 10 9 10 20 0 11 5 20 10 20 6 0 10 9 10 20 0
11 5 20 10 20 6 0 10 11 10 24 0 14 4 28 10 31 5 3 10 22 10 41 0 24 5 34 15
34 8 0 15 -4 15 -10 0 -5 18 -10 40 -10 22 0 40 -4 40 -9 0 -9 107 -21 190
-21 83 0 190 12 190 21 0 5 15 9 34 9 19 0 38 5 41 10 3 6 17 10 31 10 13 0
24 5 24 10 0 6 11 10 25 10 14 0 25 5 25 10 0 6 9 10 20 10 11 0 20 5 20 10 0
6 9 10 20 10 11 0 20 5 20 10 0 6 9 10 20 10 11 0 20 5 20 10 0 6 6 10 14 10
8 0 16 3 18 8 4 10 94 82 102 82 13 0 84 79 126 140 8 12 25 34 37 48 12 15
25 39 28 54 4 15 13 28 20 28 8 0 11 7 8 20 -3 11 0 20 6 20 6 0 11 9 11 20 0
11 5 20 10 20 6 0 10 14 10 30 0 17 5 30 10 30 6 0 10 13 10 29 0 17 5 33 10
36 6 3 10 26 10 51 0 24 5 44 10 44 6 0 10 47 10 120 0 73 -4 120 -10 120 -5
0 -10 7 -10 15 0 12 14 15 64 15 36 0 68 5 71 10 3 6 24 10 45 10 21 0 42 5
45 10 3 6 15 10 26 10 10 0 27 4 37 9 9 5 29 14 45 20 60 24 84 37 124 63 23
15 44 28 48 28 18 0 166 136 195 179 19 28 38 51 43 51 4 0 7 6 7 13 0 8 9 22
20 32 11 10 20 24 20 32 0 7 5 13 10 13 6 0 10 9 10 20 0 11 5 20 10 20 6 0
10 9 10 20 0 11 3 20 8 20 4 0 17 35 30 78 13 42 28 91 33 109 13 42 12 338
-1 363 -5 10 -10 30 -10 44 0 14 -4 28 -10 31 -5 3 -10 19 -10 36 0 16 -4 29
-10 29 -5 0 -10 14 -10 30 0 17 -4 30 -10 30 -5 0 -10 9 -10 19 0 11 -5 21
-12 23 -24 8 2 37 59 64 32 16 60 32 61 36 2 4 10 8 17 8 7 0 15 4 17 8 2 5
20 20 40 33 46 31 158 137 158 149 0 5 6 13 13 17 8 4 34 37 58 73 24 36 47
67 51 68 5 2 8 10 8 18 0 8 5 14 10 14 6 0 10 14 10 30 0 17 5 30 10 30 6 0
10 9 10 20 0 11 5 20 10 20 6 0 10 18 10 39 0 23 5 41 13 44 9 3 12 57 12 227
0 170 -3 224 -12 228 -7 2 -13 19 -13 38 0 19 -4 34 -10 34 -5 0 -10 11 -10
25 0 14 -4 25 -10 25 -5 0 -10 9 -10 19 0 11 -4 23 -10 26 -5 3 -10 15 -10 26
0 10 -4 19 -10 19 -5 0 -10 5 -10 10 0 15 -78 127 -115 166 -16 17 -37 41 -45
53 -8 11 -20 21 -27 21 -20 0 -15 15 14 41 42 38 103 111 119 141 8 16 19 28
24 28 6 0 10 7 10 15 0 8 5 15 10 15 6 0 10 9 10 20 0 11 5 20 10 20 6 0 10 9
10 20 0 11 5 20 10 20 6 0 10 9 10 20 0 11 5 20 10 20 6 0 10 14 10 30 0 17 5
30 10 30 6 0 10 13 10 29 0 16 6 31 13 33 9 4 12 59 12 233 0 174 -3 229 -12
232 -7 3 -13 20 -13 39 0 19 -4 34 -10 34 -5 0 -10 11 -10 25 0 14 -4 25 -10
25 -5 0 -10 11 -10 25 0 14 -4 25 -10 25 -5 0 -10 7 -10 15 0 8 -3 15 -7 15
-5 0 -16 17 -26 38 -27 56 -132 177 -207 240 -94 78 -99 82 -110 82 -6 0 -10
5 -10 10 0 6 -9 10 -20 10 -11 0 -20 5 -20 10 0 6 -9 10 -20 10 -11 0 -20 5
-20 10 0 6 -9 10 -19 10 -22 0 -41 42 -22 48 6 2 11 12 11 23 0 10 5 19 10 19
6 0 10 10 10 23 0 13 3 27 7 31 12 11 33 80 33 107 0 14 5 30 10 35 13 13 14
351 2 368 -4 6 -14 36 -21 66 -13 55 -50 151 -61 160 -3 3 -14 21 -23 41 -25
54 -130 191 -172 224 -20 17 -45 37 -54 45 -9 9 -34 26 -54 39 -21 13 -43 28
-50 34 -21 19 -56 37 -72 37 -8 0 -15 3 -15 8 0 11 -51 32 -77 32 -13 0 -23 3
-23 8 0 10 -74 32 -109 32 -17 0 -33 5 -36 10 -3 6 -32 10 -63 10 l-57 0 3
131 c2 85 0 135 -7 142 -6 6 -11 26 -11 44 0 17 -5 45 -11 60 -17 42 -25 63
-44 123 -10 30 -30 73 -44 95 -15 22 -33 52 -40 67 -8 15 -29 44 -48 65 -85
93 -124 133 -132 133 -5 0 -11 7 -15 15 -3 8 -12 15 -21 15 -8 0 -15 5 -15 10
0 6 -6 10 -14 10 -8 0 -16 6 -19 13 -8 22 -210 115 -266 123 -28 4 -51 10 -51
14 0 5 -26 11 -57 14 -32 3 -90 8 -129 12 -65 6 -215 -11 -291 -32 -19 -5 -23
-2 -23 14 0 12 -4 24 -10 27 -5 3 -10 19 -10 36 0 16 -4 29 -10 29 -5 0 -10 9
-10 20 0 11 -4 20 -10 20 -5 0 -10 6 -10 13 0 18 -24 67 -32 67 -5 0 -8 9 -8
20 0 11 -4 20 -10 20 -5 0 -10 7 -10 15 0 9 -10 26 -22 39 -13 13 -36 40 -53
62 -16 21 -58 67 -92 103 -35 36 -63 69 -63 73 0 4 -6 8 -14 8 -8 0 -16 7 -20
15 -3 8 -13 15 -23 15 -10 0 -30 11 -44 24 -14 13 -40 27 -57 31 -18 3 -32 10
-32 14 0 26 -345 94 -455 89 -41 -2 -75 -7 -75 -12 0 -5 -13 -6 -30 -2 -16 3
-30 2 -30 -2 0 -4 -35 -15 -77 -25 -76 -18 -118 -36 -239 -104 -57 -33 -84
-41 -84 -25 0 19 -143 172 -161 172 -5 0 -20 10 -32 23 -24 24 -50 42 -84 56
-11 6 -24 15 -28 20 -3 6 -14 11 -24 11 -10 0 -24 7 -31 15 -7 8 -22 15 -34
15 -12 0 -26 4 -32 9 -5 5 -75 21 -156 35 -164 29 -278 32 -378 9z m440 -1069
c58 -4 138 -8 178 -8 40 0 67 -2 60 -5 -7 -2 -15 -8 -18 -12 -3 -4 -37 -4 -75
2 -142 21 -571 29 -598 12 -7 -4 -43 -9 -82 -10 -38 -1 -101 -4 -140 -7 -52
-3 -61 -2 -35 4 19 5 80 10 135 11 55 2 105 6 110 10 22 16 273 17 465 3z
m355 -28 c33 -8 51 -14 40 -15 -11 0 -47 6 -80 13 -33 8 -51 14 -40 15 11 0
47 -6 80 -13z m-1155 -17 c-25 -4 -56 -7 -70 -7 -23 0 -22 1 5 8 17 4 48 8 70
8 l40 -1 -45 -8z m1263 -6 c-7 -2 -21 -2 -30 0 -10 3 -4 5 12 5 17 0 24 -2 18
-5z m50 -10 c-7 -2 -19 -2 -25 0 -7 3 -2 5 12 5 14 0 19 -2 13 -5z m-1480 -10
c-7 -2 -19 -2 -25 0 -7 3 -2 5 12 5 14 0 19 -2 13 -5z m1562 -3 c14 -7 8 -8
-20 -3 -22 3 -42 7 -44 9 -9 8 45 2 64 -6z m-1635 -10 c-8 -5 -25 -10 -38 -10
-12 0 -30 -4 -40 -9 -9 -5 -44 -15 -77 -21 -33 -6 -68 -16 -77 -21 -10 -5 -26
-9 -35 -8 -30 1 24 20 112 41 44 10 94 23 110 27 17 5 37 9 45 10 13 1 13 0 0
-9z m1687 -6 c-3 -3 -12 -4 -19 -1 -8 3 -5 6 6 6 11 1 17 -2 13 -5z m36 -21
c-7 -2 -19 -2 -25 0 -7 3 -2 5 12 5 14 0 19 -2 13 -5z m60 -10 c-7 -2 -19 -2
-25 0 -7 3 -2 5 12 5 14 0 19 -2 13 -5z m54 -9 c-3 -3 -12 -4 -19 -1 -8 3 -5
6 6 6 11 1 17 -2 13 -5z m83 -24 c0 -5 10 -11 23 -11 l22 -2 -23 -4 c-12 -2
-29 3 -38 11 -14 15 -14 16 0 16 9 0 16 -4 16 -10z m-2220 -9 c-8 -5 -31 -11
-50 -15 l-35 -6 35 14 c41 17 75 21 50 7z m2336 -27 c19 -9 32 -19 30 -22 -3
-3 -11 0 -18 6 -7 5 -29 15 -48 20 -19 6 -27 11 -17 11 11 1 34 -6 53 -15z
m-2436 -3 c-8 -5 -28 -11 -45 -14 l-30 -6 30 14 c34 16 72 21 45 6z m-97 -28
c-13 -2 -23 -9 -23 -14 0 -5 -8 -9 -17 -9 -10 0 -30 -6 -44 -14 -14 -7 -37
-16 -51 -19 -14 -4 -34 -10 -44 -14 -12 -4 -15 -3 -10 5 4 7 15 12 24 12 9 1
35 9 57 20 22 11 48 19 57 20 9 0 20 5 23 10 3 6 16 9 28 9 22 -2 22 -2 0 -6z
m2664 -19 c8 -8 11 -14 6 -14 -5 0 -13 4 -18 9 -6 5 -26 14 -45 20 l-35 11 39
-6 c21 -3 45 -12 53 -20z m60 -20 c-3 -3 -12 -4 -19 -1 -8 3 -5 6 6 6 11 1 17
-2 13 -5z m49 -31 c-6 -6 -36 9 -36 18 0 5 9 4 20 -3 10 -7 18 -14 16 -15z
m-3069 -52 c-92 -46 -137 -64 -137 -56 0 2 37 21 83 43 121 56 131 61 142 61
6 0 -34 -22 -88 -48z m3123 40 c0 -5 14 -14 32 -20 17 -6 29 -13 26 -16 -6 -6
-59 15 -68 26 -3 3 -12 9 -20 12 -10 4 -8 6 8 6 12 1 22 -3 22 -8z m-1330 -32
c261 -19 243 -17 440 -49 36 -6 83 -13 105 -16 22 -3 44 -10 50 -15 5 -5 20
-9 34 -9 13 0 38 -4 55 -9 17 -6 63 -18 101 -27 39 -10 77 -21 85 -24 8 -4 33
-13 55 -20 130 -40 287 -106 475 -199 142 -71 163 -83 173 -98 4 -7 17 -13 27
-13 10 0 23 -6 27 -12 4 -7 25 -22 46 -32 21 -11 49 -30 63 -43 14 -13 27 -23
29 -23 16 0 237 -165 243 -181 2 -5 10 -9 18 -9 8 0 14 -4 14 -10 0 -5 4 -10
10 -10 5 0 27 -18 47 -40 21 -22 43 -40 49 -40 6 0 17 -11 24 -25 7 -14 17
-25 22 -25 5 0 33 -25 63 -55 31 -30 61 -55 69 -55 13 0 129 -118 176 -179 14
-18 42 -51 63 -73 20 -22 37 -43 37 -48 0 -4 14 -22 30 -40 17 -18 30 -35 30
-39 0 -5 17 -27 60 -78 5 -7 15 -24 22 -38 6 -14 15 -25 19 -25 4 0 11 -9 14
-20 3 -11 12 -26 18 -32 21 -23 64 -91 107 -173 24 -44 46 -82 49 -85 4 -3 17
-27 31 -55 14 -27 28 -51 33 -53 4 -2 7 -12 7 -23 0 -10 5 -19 10 -19 6 0 10
-7 10 -15 0 -9 9 -35 20 -57 11 -23 20 -48 20 -55 0 -7 5 -13 10 -13 6 0 10
-7 10 -15 0 -8 4 -23 9 -33 5 -9 14 -30 21 -47 7 -16 16 -38 21 -47 5 -10 9
-25 9 -33 0 -8 5 -15 10 -15 6 0 10 -13 10 -29 0 -17 5 -33 10 -36 6 -4 10
-14 9 -23 -1 -10 0 -24 3 -32 20 -58 28 -89 28 -108 0 -11 5 -24 10 -27 6 -3
10 -19 10 -35 0 -16 5 -32 10 -35 6 -3 10 -24 10 -45 0 -21 4 -41 9 -44 5 -3
11 -23 15 -43 3 -21 10 -67 16 -103 6 -36 14 -91 16 -122 3 -32 9 -58 14 -58
13 0 22 -192 22 -470 0 -244 -8 -371 -32 -525 -6 -38 -13 -94 -16 -122 -3 -29
-10 -53 -15 -53 -5 0 -9 -20 -9 -44 0 -25 -4 -48 -10 -51 -5 -3 -10 -21 -10
-40 0 -19 -4 -37 -10 -40 -5 -3 -10 -19 -10 -35 0 -16 -4 -32 -10 -35 -5 -3
-10 -19 -10 -36 0 -16 -4 -29 -9 -29 -4 0 -11 -21 -15 -46 -7 -52 -47 -177
-58 -182 -5 -2 -8 -11 -8 -21 0 -9 -9 -36 -20 -59 -11 -22 -20 -48 -20 -57 0
-8 -4 -15 -10 -15 -5 0 -10 -9 -10 -20 0 -11 -4 -20 -10 -20 -5 0 -10 -9 -10
-20 0 -11 -4 -20 -10 -20 -5 0 -10 -7 -10 -15 0 -25 -151 -314 -182 -349 -10
-11 -18 -25 -18 -31 0 -6 -8 -20 -18 -31 -10 -10 -26 -35 -35 -54 -21 -41 -87
-134 -99 -138 -4 -2 -8 -8 -8 -13 0 -12 -71 -109 -93 -128 -10 -7 -17 -18 -17
-24 0 -5 -8 -17 -17 -26 -10 -9 -38 -38 -62 -66 -63 -72 -299 -315 -306 -315
-3 0 -17 -10 -30 -22 -64 -59 -75 -68 -82 -68 -5 0 -15 -9 -23 -20 -8 -11 -19
-20 -25 -20 -6 0 -17 -9 -25 -20 -8 -11 -19 -20 -25 -20 -6 0 -17 -9 -25 -20
-8 -11 -20 -20 -27 -20 -7 0 -13 -4 -13 -10 0 -5 -7 -10 -15 -10 -8 0 -15 -4
-15 -10 0 -5 -7 -10 -15 -10 -8 0 -15 -4 -15 -8 0 -5 -18 -17 -40 -27 -22 -10
-40 -22 -40 -27 0 -4 -7 -8 -15 -8 -8 0 -15 -4 -15 -10 0 -5 -7 -10 -15 -10
-8 0 -15 -4 -15 -10 0 -5 -7 -10 -15 -10 -8 0 -15 -4 -15 -10 0 -5 -7 -10 -15
-10 -8 0 -15 -4 -15 -10 0 -5 -7 -10 -15 -10 -8 0 -15 -4 -15 -8 0 -5 -16 -14
-35 -22 -19 -8 -35 -17 -35 -22 0 -4 -7 -8 -15 -8 -8 0 -15 -3 -15 -7 0 -5
-10 -13 -23 -19 -12 -5 -53 -26 -92 -46 -38 -20 -88 -44 -110 -53 -22 -10 -60
-26 -85 -37 -25 -11 -54 -24 -65 -28 -11 -4 -40 -17 -63 -29 -24 -11 -52 -21
-62 -21 -11 0 -22 -4 -25 -10 -3 -5 -17 -10 -30 -10 -13 0 -27 -4 -30 -10 -3
-5 -17 -10 -30 -10 -13 0 -27 -5 -30 -10 -3 -6 -19 -10 -36 -10 -16 0 -29 -4
-29 -10 0 -5 -16 -10 -35 -10 -19 0 -35 -4 -35 -8 0 -5 -30 -13 -67 -19 -38
-7 -90 -17 -118 -23 -84 -19 -157 -31 -215 -36 -30 -3 -64 -9 -75 -14 -67 -31
-903 -29 -950 2 -6 3 -30 7 -55 9 -25 1 -49 6 -55 10 -5 4 -35 9 -65 12 -71 6
-270 46 -292 58 -10 5 -31 9 -48 9 -16 0 -30 5 -30 10 0 6 -13 10 -29 10 -17
0 -33 5 -36 10 -3 6 -17 10 -30 10 -13 0 -27 5 -30 10 -3 6 -17 10 -30 10 -13
0 -27 5 -30 10 -3 6 -13 10 -21 10 -8 0 -36 10 -62 21 -26 12 -60 27 -77 34
-32 14 -125 56 -245 112 -41 20 -88 45 -105 58 -16 12 -43 28 -60 36 -47 24
-77 42 -99 62 -11 9 -26 17 -33 17 -7 0 -13 5 -13 10 0 6 -7 10 -15 10 -8 0
-15 4 -15 9 0 5 -11 12 -25 15 -13 3 -36 17 -51 31 -15 14 -31 25 -35 25 -5 0
-18 9 -29 20 -11 11 -27 20 -35 20 -8 0 -15 7 -15 15 0 8 -7 15 -15 15 -9 0
-31 16 -51 35 -19 19 -38 35 -43 35 -18 0 -351 323 -351 341 0 5 -7 9 -15 9
-8 0 -15 7 -15 15 0 8 -7 15 -15 15 -8 0 -17 11 -21 25 -3 14 -12 25 -20 25
-8 0 -14 5 -14 11 0 7 -15 26 -32 43 -18 17 -46 50 -62 74 -16 23 -33 42 -38
42 -5 0 -14 14 -19 30 -6 17 -15 30 -20 30 -5 0 -13 8 -16 18 -4 9 -17 30 -30
45 -13 16 -23 35 -23 43 0 8 -6 14 -14 14 -8 0 -20 16 -26 35 -6 19 -16 35
-21 35 -5 0 -16 18 -25 39 -8 22 -21 42 -28 44 -7 3 -18 24 -26 47 -8 23 -19
44 -26 47 -6 2 -19 29 -30 59 -10 29 -23 54 -29 54 -6 0 -23 35 -39 78 -16 42
-34 82 -40 87 -16 15 -47 83 -86 195 -13 36 -29 72 -37 81 -7 8 -13 25 -13 37
0 12 -4 22 -9 22 -5 0 -12 27 -16 60 -4 33 -11 60 -16 60 -5 0 -9 16 -9 35 0
19 -4 35 -10 35 -5 0 -10 15 -10 34 0 19 -5 38 -10 41 -5 3 -10 21 -10 40 0
19 -4 37 -10 40 -5 3 -10 26 -10 51 0 24 -4 44 -10 44 -5 0 -10 23 -10 50 0
28 -4 50 -10 50 -6 0 -10 30 -10 70 0 40 -4 70 -10 70 -6 0 -10 38 -10 95 0
57 -4 95 -10 95 -6 0 -10 97 -10 270 0 173 4 270 10 270 6 0 10 40 10 100 0
60 4 100 10 100 6 0 10 28 10 65 0 37 4 65 10 65 6 0 10 22 10 49 0 28 5 53
10 56 6 3 10 26 10 50 0 24 5 47 10 50 6 3 10 22 10 41 0 19 5 34 10 34 6 0
10 15 10 34 0 19 5 38 10 41 6 3 10 19 10 36 0 16 5 29 11 29 7 0 9 12 5 35
-4 22 -3 35 4 35 5 0 10 11 10 25 0 14 5 25 10 25 6 0 10 8 10 19 0 17 31 106
51 143 5 10 9 25 9 33 0 8 5 15 10 15 6 0 10 11 10 25 0 14 5 25 10 25 6 0 10
9 10 20 0 11 5 20 10 20 6 0 10 9 10 20 0 11 5 20 10 20 6 0 10 11 10 24 0 14
5 28 10 31 6 3 10 15 10 26 0 10 3 19 8 19 4 0 13 15 21 33 8 17 27 51 43 74
15 23 28 46 28 52 0 6 4 11 9 11 5 0 12 15 15 34 4 19 13 40 21 46 9 7 23 29
32 49 9 20 24 43 33 51 8 8 21 27 29 43 8 15 18 27 23 27 4 0 8 7 8 15 0 9 9
26 20 38 33 35 80 99 80 108 0 4 18 26 40 49 22 23 40 46 40 50 0 5 15 24 33
42 18 18 43 49 57 68 31 44 285 300 298 300 6 0 23 15 39 33 15 18 44 43 63
57 32 23 44 32 100 83 11 9 24 17 29 17 5 0 11 4 13 9 2 4 44 34 93 66 50 31
92 61 93 66 2 5 10 9 18 9 8 0 14 5 14 10 0 6 7 10 15 10 8 0 15 3 15 8 0 4
15 13 33 21 17 8 41 21 52 31 11 9 41 27 68 41 26 13 47 27 47 31 0 5 9 8 20
8 11 0 20 5 20 10 0 6 9 10 20 10 11 0 20 4 20 9 0 5 10 11 23 14 12 3 45 14
72 25 28 11 66 26 85 32 19 7 53 21 75 31 47 22 118 47 161 58 16 5 42 16 57
26 15 9 33 15 41 12 7 -3 18 -1 24 5 6 6 28 14 49 19 21 4 56 13 78 19 22 7
65 17 95 24 30 7 62 15 70 18 8 3 47 11 85 17 39 7 90 16 115 21 25 5 101 14
170 21 69 6 137 14 153 18 52 11 312 12 467 0z m1532 -68 c48 -22 90 -46 93
-51 8 -12 -37 6 -85 36 -19 11 -52 27 -73 35 -21 7 -44 20 -50 28 -10 12 -9
13 8 4 11 -6 59 -29 107 -52z m-3473 -4 c-2 -1 -13 -9 -24 -17 -19 -14 -19
-14 -6 3 7 9 18 17 24 17 6 0 8 -1 6 -3z m-73 -43 c-11 -8 -26 -14 -33 -14 -7
0 -13 -4 -13 -10 0 -5 -9 -10 -20 -10 -11 0 -23 -7 -26 -15 -4 -8 -14 -15 -24
-15 -10 0 -23 -7 -30 -15 -7 -8 -19 -15 -26 -15 -8 0 -19 -9 -26 -20 -7 -11
-19 -20 -26 -20 -8 0 -48 -22 -89 -50 -41 -27 -77 -50 -79 -50 -13 0 34 38 54
44 12 4 22 12 22 17 0 6 14 15 30 20 17 6 30 15 30 20 0 5 9 9 20 9 11 0 25 9
32 20 7 11 20 20 30 20 9 0 20 5 23 11 4 5 17 15 28 20 29 12 113 62 123 72 4
4 10 4 13 1 3 -3 -3 -12 -13 -20z m3684 -24 c0 -5 8 -10 19 -10 10 0 24 -7 31
-15 7 -8 21 -15 31 -15 11 0 19 -4 19 -10 0 -11 -29 -1 -85 30 -50 28 -52 30
-32 30 10 0 17 -4 17 -10z m134 -85 c11 -8 16 -15 10 -15 -5 0 -18 7 -28 15
-11 8 -16 15 -10 15 5 0 18 -7 28 -15z m66 -45 c29 -26 20 -26 -22 0 -19 11
-26 20 -17 20 9 0 26 -9 39 -20z m116 -81 c19 -22 19 -22 -3 -8 -13 8 -23 17
-23 21 0 12 6 9 26 -13z m-4427 -25 c-13 -15 -39 -33 -56 -40 -18 -8 -33 -18
-33 -23 0 -6 -10 -13 -22 -16 -13 -4 -38 -21 -57 -39 l-34 -31 29 37 c16 21
37 38 46 38 9 0 23 8 30 18 7 10 25 22 40 26 15 3 35 17 44 31 9 14 21 25 27
25 6 0 0 -12 -14 -26z m4517 -41 c12 -13 29 -23 38 -23 9 0 16 -7 16 -15 0 -8
9 -15 20 -15 13 0 20 -6 19 -17 0 -11 -3 -13 -6 -5 -2 6 -13 12 -24 12 -10 0
-19 7 -19 15 0 8 -6 15 -14 15 -7 0 -30 16 -50 35 -21 19 -29 32 -19 28 9 -4
27 -17 39 -30z m193 -162 c-1 -13 -2 -12 -6 2 -2 9 -8 17 -11 17 -4 0 -23 14
-42 31 l-35 31 48 -33 c26 -18 46 -40 46 -48z m-4959 19 c-17 -22 -38 -40 -45
-40 -8 0 -33 -22 -57 -50 -24 -27 -50 -50 -58 -51 -8 0 -46 -36 -83 -80 -37
-43 -74 -79 -81 -79 -13 0 -260 -282 -262 -300 -1 -5 -2 -13 -3 -18 0 -4 -11
-18 -24 -32 -65 -72 -116 -138 -112 -144 3 -3 0 -2 -6 3 -8 7 10 34 60 90 39
45 71 88 71 97 0 20 249 306 271 311 10 3 48 41 84 84 37 43 73 79 80 79 8 0
33 22 57 50 24 27 49 50 56 50 7 0 26 16 43 35 42 48 48 44 9 -5z m5095 -130
c80 -73 113 -100 121 -100 9 0 56 -51 52 -56 -3 -2 -15 7 -28 21 -13 14 -27
25 -32 25 -10 0 -22 11 -115 98 -40 37 -83 75 -97 85 -15 10 -26 22 -26 27 0
11 27 -10 125 -100z m225 -215 c0 -5 -5 -3 -10 5 -5 8 -10 20 -10 25 0 6 5 3
10 -5 5 -8 10 -19 10 -25z m17 -17 c-3 -8 -6 -5 -6 6 -1 11 2 17 5 13 3 -3 4
-12 1 -19z m37 -33 c3 -8 1 -15 -3 -15 -5 0 -11 7 -15 15 -3 8 -1 15 3 15 5 0
11 -7 15 -15z m64 -73 c38 -43 59 -69 145 -184 15 -21 24 -38 20 -38 -4 0 -19
18 -33 39 -34 52 -75 103 -139 172 -30 33 -50 59 -45 58 5 0 28 -21 52 -47z
m215 -283 c17 -22 37 -57 37 -66 0 -8 -35 42 -64 92 -18 30 -13 25 27 -26z
m-6412 -97 c-17 -22 -37 -44 -45 -51 -8 -7 -12 -19 -10 -26 3 -8 -13 -33 -36
-57 -35 -36 -39 -38 -21 -11 12 18 26 35 31 38 6 4 10 14 10 23 0 10 21 41 46
70 53 61 70 70 25 14z m6518 -59 c6 -12 16 -25 23 -30 7 -4 20 -21 28 -38 8
-16 22 -39 31 -50 21 -25 36 -71 20 -61 -6 4 -11 11 -11 16 0 5 -13 29 -30 53
-16 25 -30 50 -30 56 0 6 -5 11 -11 11 -5 0 -17 16 -25 35 -8 19 -18 35 -23
35 -7 0 -31 43 -31 57 0 9 48 -59 59 -84z m-6648 -151 c-12 -22 -41 -48 -41
-36 0 8 40 54 47 54 2 0 -1 -8 -6 -18z m-57 -101 c-10 -10 -21 -16 -24 -14 -3
3 4 11 14 19 28 20 33 17 10 -5z m6876 -11 c0 -5 -2 -10 -4 -10 -3 0 -8 5 -11
10 -3 6 -1 10 4 10 6 0 11 -4 11 -10z m-6908 -60 c-12 -16 -22 -35 -22 -42 0
-7 -9 -26 -20 -43 -13 -19 -20 -24 -20 -14 0 9 7 22 15 29 8 7 15 18 15 26 0
15 43 83 49 78 3 -2 -5 -18 -17 -34z m6928 9 c0 -6 -4 -7 -10 -4 -5 3 -10 11
-10 16 0 6 5 7 10 4 6 -3 10 -11 10 -16z m20 -39 c0 -11 5 -20 10 -20 6 0 10
-9 10 -20 0 -11 5 -20 10 -20 6 0 10 -11 10 -25 0 -14 5 -25 10 -25 6 0 10 -6
10 -14 0 -8 14 -40 30 -71 17 -31 30 -65 30 -74 0 -9 4 -21 8 -26 5 -6 14 -23
21 -39 11 -26 10 -28 -3 -16 -9 7 -16 21 -16 31 0 11 -4 19 -10 19 -5 0 -10
14 -10 30 0 17 -4 30 -10 30 -5 0 -10 9 -10 20 0 11 -4 20 -10 20 -5 0 -10 9
-10 20 0 11 -4 20 -10 20 -5 0 -10 9 -10 20 0 11 -4 20 -10 20 -5 0 -10 9 -10
20 0 11 -8 34 -18 52 -26 47 -33 68 -22 68 6 0 10 -9 10 -20z m-7019 -117 c-5
-10 -17 -35 -27 -55 -10 -21 -20 -35 -22 -33 -3 2 3 16 12 29 9 14 16 31 16
39 0 7 5 18 12 25 17 17 20 15 9 -5z m-57 -130 c-4 -16 -11 -32 -15 -37 -5 -6
-9 -18 -9 -27 0 -9 -6 -22 -14 -28 -8 -7 -12 -20 -9 -30 2 -9 -3 -23 -11 -30
-9 -8 -16 -19 -16 -26 0 -24 -47 -156 -60 -168 -10 -10 -11 -9 -4 3 13 23 43
113 44 130 0 9 9 33 20 54 10 22 17 42 15 46 -3 4 2 13 10 20 8 7 15 21 15 31
0 10 5 21 10 24 6 3 10 16 10 29 0 20 7 36 17 36 2 0 0 -12 -3 -27z m7256
-165 c0 -11 5 -29 12 -41 10 -20 10 -21 -5 -8 -10 7 -17 23 -17 35 0 12 -6 28
-12 35 -11 10 -10 11 5 6 9 -4 17 -16 17 -27z m30 -118 c0 -16 5 -30 10 -30 6
0 10 -13 10 -29 0 -17 5 -33 10 -36 6 -3 10 -19 10 -35 0 -16 5 -32 10 -35 6
-3 10 -19 10 -36 0 -16 5 -29 10 -29 6 0 10 -18 10 -40 0 -22 5 -40 10 -40 6
0 9 -23 8 -52 l-2 -53 -3 48 c-2 26 -8 47 -14 47 -5 0 -9 18 -9 40 0 22 -4 40
-10 40 -5 0 -10 16 -10 35 0 19 -4 35 -10 35 -5 0 -10 15 -10 34 0 19 -4 38
-10 41 -5 3 -10 17 -10 30 0 13 -4 26 -9 29 -12 8 -20 66 -9 66 4 0 8 -13 8
-30z m-7428 -112 c-7 -7 -12 -8 -12 -2 0 14 12 26 19 19 2 -3 -1 -11 -7 -17z
m-9 -65 c-3 -27 -9 -52 -14 -57 -5 -6 -9 -26 -9 -46 0 -20 -6 -45 -14 -55 -8
-11 -12 -25 -9 -32 3 -7 -2 -24 -11 -38 -9 -13 -16 -42 -16 -64 0 -22 -4 -43
-10 -46 -5 -3 -10 -30 -10 -60 0 -30 -4 -57 -10 -60 -5 -3 -10 -37 -10 -76 0
-39 -4 -69 -10 -69 -6 0 -10 -45 -10 -115 0 -70 -4 -115 -10 -115 -6 0 -10
-72 -10 -195 0 -123 4 -195 10 -195 6 0 10 -45 10 -115 0 -70 4 -115 10 -115
6 0 9 -36 8 -92 l-2 -93 -3 88 c-2 48 -8 87 -13 87 -6 0 -10 48 -10 115 0 70
-4 115 -10 115 -6 0 -10 75 -10 205 0 130 4 205 10 205 6 0 10 45 10 115 0 70
4 115 10 115 6 0 10 30 10 69 0 39 5 73 10 76 6 3 10 30 10 60 0 30 5 57 10
60 6 3 10 22 10 41 0 19 7 46 16 59 9 14 13 32 10 41 -3 8 1 25 9 37 8 12 15
38 15 59 0 20 5 40 10 43 6 3 10 23 10 44 0 32 6 51 15 51 2 0 0 -21 -2 -47z
m7568 -323 c5 0 9 -27 9 -60 0 -33 4 -60 10 -60 6 0 10 -32 10 -75 0 -41 4
-75 9 -75 13 0 22 -186 22 -435 0 -249 -9 -435 -22 -435 -5 0 -9 -33 -9 -74 0
-41 -4 -78 -10 -81 -5 -3 -10 -30 -10 -59 0 -28 -4 -56 -9 -61 -6 -6 -11 -30
-14 -55 l-4 -45 -1 52 c-1 28 3 55 8 58 6 3 10 31 10 61 0 30 5 54 10 54 6 0
10 33 10 80 0 44 4 80 9 80 13 0 22 179 22 425 0 246 -9 425 -22 425 -5 0 -9
33 -9 74 0 41 -4 78 -10 81 -5 3 -10 31 -10 61 0 30 -4 54 -10 54 -6 0 -9 23
-8 53 l2 52 3 -47 c2 -27 8 -48 14 -48z m-7650 -1404 c5 -6 9 -27 9 -48 0 -21
7 -50 16 -63 9 -14 14 -31 11 -38 -3 -7 1 -21 9 -32 8 -10 14 -36 14 -57 0
-21 4 -38 9 -38 9 0 16 -32 26 -107 l4 -38 -10 35 c-6 19 -13 50 -16 68 -3 17
-9 32 -14 32 -5 0 -9 17 -9 38 0 21 -7 47 -15 59 -8 12 -12 29 -9 37 3 9 -1
27 -10 41 -9 13 -16 40 -16 59 0 19 -4 38 -10 41 -5 3 -9 32 -8 63 l2 57 3
-50 c2 -27 8 -54 14 -59z m7610 -184 c-6 -2 -11 -23 -11 -47 0 -24 -4 -47 -10
-50 -5 -3 -10 -19 -10 -36 0 -16 -4 -29 -9 -29 -6 0 -12 -17 -14 -37 l-4 -38
-1 43 c-1 23 3 42 8 42 6 0 10 13 10 29 0 17 5 33 10 36 6 3 10 24 10 45 0 21
5 42 10 45 6 3 11 23 12 43 l1 37 4 -40 c3 -23 0 -41 -6 -43z m-7472 -331 c6
-18 7 -31 4 -27 -12 12 -33 81 -32 106 1 20 3 18 9 -10 4 -19 13 -50 19 -69z
m7392 41 c-6 -2 -11 -17 -11 -33 0 -16 -4 -29 -8 -29 -11 0 -3 58 9 66 5 3 10
17 10 32 2 26 2 26 6 -3 3 -16 0 -31 -6 -33z m-33 -124 c-6 -18 -12 -39 -14
-45 -2 -7 -9 -13 -16 -13 -9 0 -9 3 0 12 7 7 12 21 12 33 0 17 16 45 26 45 1
0 -3 -15 -8 -32z m-7330 -6 c-2 -26 64 -201 84 -222 10 -11 18 -25 18 -33 0
-7 4 -17 8 -22 5 -6 19 -39 32 -75 13 -36 30 -73 38 -82 8 -10 11 -18 5 -18
-12 0 -25 26 -53 100 -26 69 -41 101 -57 121 -15 18 -93 223 -93 245 0 8 4 13
9 9 6 -3 9 -13 9 -23z m7302 -76 c0 -2 -7 -7 -16 -10 -8 -3 -12 -2 -9 4 6 10
25 14 25 6z m-28 -64 c-7 -2 -12 -15 -12 -28 0 -13 -4 -24 -10 -24 -5 0 -10
-6 -10 -14 0 -8 -13 -40 -30 -71 -16 -31 -30 -63 -30 -71 0 -8 -4 -14 -10 -14
-5 0 -10 -9 -10 -20 0 -11 -4 -20 -10 -20 -5 0 -10 -9 -10 -20 0 -12 -7 -20
-17 -20 -10 0 -14 4 -8 8 15 10 35 49 35 67 0 8 5 15 10 15 6 0 10 9 10 20 0
11 5 20 10 20 6 0 10 9 10 20 0 11 5 20 10 20 6 0 10 9 10 20 0 11 5 20 10 20
6 0 10 11 10 25 0 14 5 25 10 25 6 0 10 7 10 15 0 22 24 58 29 43 2 -7 -1 -14
-7 -16z m-7062 -357 c0 -5 -5 -3 -10 5 -5 8 -10 20 -10 25 0 6 5 3 10 -5 5 -8
10 -19 10 -25z m6890 -15 c0 -5 -5 -10 -11 -10 -5 0 -7 5 -4 10 3 6 8 10 11
10 2 0 4 -4 4 -10z m-6870 -35 c0 -5 -5 -3 -10 5 -5 8 -10 20 -10 25 0 6 5 3
10 -5 5 -8 10 -19 10 -25z m6842 -7 c-7 -7 -12 -8 -12 -2 0 14 12 26 19 19 2
-3 -1 -11 -7 -17z m-6802 -51 c0 -6 -9 -1 -20 11 -11 12 -20 24 -20 28 0 4 9
-1 20 -11 11 -10 20 -23 20 -28z m6782 11 c-7 -7 -12 -8 -12 -2 0 14 12 26 19
19 2 -3 -1 -11 -7 -17z m-24 -41 c-7 -8 -22 -33 -32 -56 -11 -22 -22 -41 -26
-41 -4 0 -13 -13 -20 -30 -7 -16 -16 -30 -21 -30 -9 0 14 52 32 74 6 6 23 33
40 60 16 26 33 46 36 43 3 -3 -1 -12 -9 -20z m-6698 -72 c0 -10 49 -88 71
-113 6 -7 8 -16 5 -19 -3 -3 -13 9 -23 27 -10 18 -28 44 -40 58 -13 14 -23 29
-23 34 0 5 -11 26 -25 46 -14 20 -25 41 -25 46 0 12 59 -66 60 -79z m6583
-113 c-21 -22 -26 -21 -17 2 3 9 12 16 20 16 11 0 10 -4 -3 -18z m-6486 -54
c-3 -7 -5 -2 -5 12 0 14 2 19 5 13 2 -7 2 -19 0 -25z m43 -46 c0 -4 11 -19 25
-32 14 -13 25 -28 25 -33 0 -12 -50 41 -67 71 -17 29 -16 37 2 18 8 -8 15 -19
15 -24z m6359 -13 c-14 -27 -34 -49 -44 -49 -4 0 5 14 19 31 14 17 26 35 26
41 0 6 3 9 6 6 3 -4 0 -17 -7 -29z m-80 -119 c-19 -22 -52 -62 -74 -90 -55
-68 -112 -130 -121 -130 -6 0 33 47 115 136 16 17 34 42 41 54 15 29 52 69 64
69 4 1 -7 -17 -25 -39z m-6178 -7 c8 -16 25 -39 39 -53 14 -14 35 -37 46 -51
19 -26 134 -156 182 -207 13 -13 21 -26 19 -28 -3 -3 -17 10 -32 28 -15 18
-55 65 -90 103 -142 156 -165 182 -165 190 0 5 -7 17 -17 27 -9 10 -12 18 -6
18 5 0 16 -12 24 -27z m5940 -270 c-33 -47 -321 -320 -381 -363 -17 -12 -30
-17 -30 -11 0 6 11 16 24 23 26 14 265 235 351 325 56 59 65 65 36 26z m-5541
-163 c6 0 10 -6 10 -14 0 -7 12 -22 28 -31 15 -10 37 -29 49 -42 12 -12 27
-23 33 -23 5 0 10 -7 10 -15 0 -8 5 -15 10 -15 6 0 18 -8 28 -17 10 -10 40
-36 66 -58 27 -22 54 -46 62 -52 7 -7 16 -13 21 -13 4 0 18 -11 31 -24 21 -23
21 -24 2 -19 -11 3 -20 12 -20 19 0 8 -6 14 -12 14 -7 0 -30 16 -51 35 -21 19
-40 35 -42 35 -5 0 -40 27 -67 53 -10 9 -22 17 -28 17 -5 0 -10 5 -10 10 0 6
-17 25 -37 43 -79 68 -163 151 -163 161 0 6 16 -6 35 -26 20 -21 40 -38 45
-38z m5092 -250 c-18 -17 -38 -30 -45 -30 -6 0 2 9 19 19 18 11 35 24 38 30 4
6 10 11 14 11 4 0 -8 -14 -26 -30z m-98 -77 c-27 -20 -61 -47 -76 -61 -16 -14
-28 -23 -28 -20 0 9 20 28 59 58 18 14 42 33 54 42 12 10 26 17 31 18 5 0 -13
-16 -40 -37z m-4579 -33 c3 -6 -1 -7 -9 -4 -18 7 -21 14 -7 14 6 0 13 -4 16
-10z m35 -25 c0 -8 -2 -15 -4 -15 -2 0 -6 7 -10 15 -3 8 -1 15 4 15 6 0 10 -7
10 -15z m80 -50 c0 -7 11 -16 25 -19 14 -4 25 -11 25 -17 0 -13 -38 7 -68 37
-22 21 -22 22 -3 17 12 -3 21 -11 21 -18z m118 -76 c10 0 12 -3 5 -5 -15 -7
-53 13 -53 27 0 6 7 3 16 -5 8 -9 23 -16 32 -17z m4060 -17 c-16 -9 -28 -20
-28 -24 0 -5 -9 -8 -20 -8 -11 0 -20 -4 -20 -8 0 -5 -16 -14 -35 -22 -19 -8
-35 -17 -35 -22 0 -4 -9 -8 -20 -8 -11 0 -20 -4 -20 -10 0 -5 -7 -10 -15 -10
-8 0 -15 -4 -15 -10 0 -5 -9 -10 -20 -10 -11 0 -20 -4 -20 -10 0 -5 -9 -10
-20 -10 -11 0 -20 -3 -20 -8 0 -10 -60 -36 -67 -28 -4 3 1 6 10 6 10 0 17 5
17 10 0 6 7 10 15 10 8 0 15 5 15 10 0 6 9 10 20 10 11 0 20 5 20 10 0 6 9 10
20 10 11 0 20 4 20 8 0 5 16 14 35 22 19 8 35 17 35 20 0 3 16 12 35 20 19 8
35 17 35 20 0 3 16 12 35 20 19 8 35 17 35 22 0 4 8 8 18 8 12 0 10 -5 -10
-18z m-4005 -14 c15 -7 27 -16 27 -19 0 -4 30 -22 68 -40 37 -18 69 -37 70
-41 2 -4 12 -8 23 -8 10 0 19 -4 19 -10 0 -5 7 -10 15 -10 8 0 15 -4 15 -10 0
-5 9 -10 20 -10 11 0 20 -4 20 -10 0 -5 7 -10 17 -10 9 0 13 -3 10 -7 -7 -7
-100 37 -105 50 -2 4 -12 7 -23 7 -10 0 -19 5 -19 10 0 6 -7 10 -15 10 -8 0
-15 5 -15 10 0 6 -9 10 -20 10 -11 0 -20 4 -20 8 0 4 -16 14 -35 21 -19 7 -35
17 -35 22 0 5 -7 9 -15 9 -8 0 -15 4 -15 9 0 5 -8 12 -17 14 -10 3 -13 5 -7 6
5 0 22 -5 37 -11z m547 -270 c14 -6 36 -15 50 -21 14 -5 33 -13 42 -18 10 -5
27 -9 37 -9 11 0 23 -4 26 -10 3 -5 17 -10 31 -10 13 0 24 -4 24 -10 0 -5 14
-10 30 -10 17 0 30 -4 30 -10 0 -5 14 -10 30 -10 17 0 30 -4 30 -10 0 -5 18
-10 40 -10 22 0 40 -3 40 -8 0 -10 -79 -2 -86 9 -3 5 -16 9 -29 9 -13 0 -27 5
-30 10 -3 6 -17 10 -30 10 -13 0 -27 5 -30 10 -3 6 -17 10 -31 10 -13 0 -24 5
-24 10 0 6 -13 10 -30 10 -16 0 -30 5 -30 10 0 6 -11 10 -25 10 -14 0 -25 5
-25 10 0 6 -9 10 -19 10 -11 0 -23 5 -26 10 -3 6 -15 10 -25 10 -10 0 -22 4
-25 10 -6 10 10 7 55 -12z m2915 12 c-3 -5 -15 -10 -26 -10 -10 0 -19 -4 -19
-10 0 -5 -11 -10 -25 -10 -14 0 -25 -4 -25 -10 0 -5 -11 -10 -25 -10 -14 0
-25 -4 -25 -10 0 -5 -11 -10 -25 -10 -14 0 -25 -4 -25 -10 0 -5 -13 -10 -29
-10 -17 0 -33 -4 -36 -10 -3 -5 -17 -10 -30 -10 -13 0 -27 -4 -30 -10 -3 -5
-17 -10 -30 -10 -13 0 -26 -4 -29 -9 -7 -11 -76 -20 -76 -9 0 4 16 8 35 8 19
0 35 5 35 10 0 6 14 10 30 10 17 0 30 5 30 10 0 6 14 10 30 10 17 0 30 5 30
10 0 6 14 10 30 10 17 0 30 5 30 10 0 6 9 10 20 10 11 0 28 4 38 9 9 5 28 13
42 18 14 6 36 15 50 21 21 9 47 18 58 21 2 1 0 -3 -3 -9z m-595 -190 c0 -5 -5
-10 -11 -10 -5 0 -7 5 -4 10 3 6 8 10 11 10 2 0 4 -4 4 -10z m-1727 -17 c-7
-2 -19 -2 -25 0 -7 3 -2 5 12 5 14 0 19 -2 13 -5z m94 -19 c-3 -3 -12 -4 -19
-1 -8 3 -5 6 6 6 11 1 17 -2 13 -5z m1443 -4 c0 -5 -25 -10 -55 -10 -30 0 -55
-4 -55 -10 0 -6 -31 -10 -74 -10 -41 0 -78 -4 -81 -10 -4 -6 -53 -10 -115 -10
-62 0 -111 -4 -115 -10 -7 -11 -387 -14 -399 -3 -3 4 -53 8 -109 9 -56 1 -140
7 -187 14 -47 6 -101 14 -120 16 -20 3 -49 9 -65 14 -25 8 -23 9 15 4 25 -3
56 -7 70 -9 14 -1 61 -8 105 -15 44 -6 126 -13 182 -14 57 -1 106 -5 109 -9
12 -11 392 -8 399 3 4 6 53 10 115 10 62 0 111 4 115 10 3 6 37 10 76 10 38 0
69 4 69 10 0 5 26 11 58 13 31 2 58 4 60 5 1 1 2 -2 2 -8z"/>
<path d="M4945 8149 c-22 -6 -71 -17 -110 -26 -38 -8 -103 -30 -143 -49 -40
-19 -77 -34 -82 -34 -6 0 -10 -4 -10 -8 0 -5 -22 -19 -50 -32 -27 -13 -50 -27
-50 -31 0 -5 -13 -15 -30 -24 -16 -8 -43 -28 -59 -44 -16 -16 -38 -35 -48 -42
-32 -24 -154 -170 -171 -205 -8 -19 -19 -34 -23 -34 -3 0 -12 -14 -19 -30 -12
-30 -13 -30 -64 -23 -93 14 -314 6 -420 -16 -55 -11 -102 -24 -105 -28 -3 -5
-37 -19 -76 -32 -38 -14 -72 -28 -75 -31 -3 -4 -25 -18 -50 -30 -25 -12 -47
-26 -50 -30 -3 -4 -24 -19 -48 -34 -45 -28 -49 -31 -133 -113 -76 -73 -102
-102 -135 -153 -16 -25 -31 -47 -35 -50 -11 -10 -89 -158 -89 -169 0 -7 -9
-30 -20 -52 -24 -51 -48 -158 -60 -269 -5 -47 -12 -100 -16 -118 -3 -19 -2
-43 4 -55 6 -12 13 -58 16 -102 7 -89 29 -194 50 -240 8 -16 22 -50 32 -75 10
-25 24 -52 31 -61 7 -8 13 -20 13 -26 0 -27 114 -178 195 -258 108 -106 132
-127 185 -156 22 -13 40 -26 40 -31 0 -4 5 -8 10 -8 6 0 47 -18 93 -39 45 -22
109 -47 142 -56 33 -9 69 -21 80 -26 11 -5 49 -13 85 -17 l65 -7 5 -520 c5
-479 8 -539 31 -570 39 -52 90 -100 123 -118 l41 -22 1104 -3 c1222 -3 1161
-6 1237 61 20 18 51 55 70 83 l34 51 0 516 0 517 23 4 c12 3 47 8 77 11 30 3
57 9 60 13 3 4 36 15 74 25 64 17 235 91 246 106 3 4 25 18 49 32 52 29 77 50
179 150 95 94 112 113 142 164 13 22 30 46 36 53 7 6 16 22 20 35 3 12 14 33
24 47 10 14 28 57 41 95 13 39 26 72 29 75 12 10 32 125 39 228 12 159 -14
442 -40 442 -5 0 -9 7 -9 15 0 20 -41 139 -50 145 -4 3 -17 28 -30 57 -12 28
-30 59 -41 69 -10 9 -19 21 -19 26 0 15 -78 106 -155 181 -78 77 -85 83 -135
117 -19 13 -37 27 -40 30 -3 3 -27 16 -55 30 -27 13 -52 27 -55 31 -3 3 -34
17 -70 30 -36 12 -67 26 -70 30 -3 4 -53 18 -110 30 -80 17 -141 22 -255 23
-82 0 -162 -3 -177 -7 -24 -6 -28 -4 -34 18 -3 14 -10 25 -15 25 -5 0 -18 18
-29 40 -20 39 -136 179 -175 212 -11 9 -35 30 -54 47 -19 17 -38 31 -43 31 -4
0 -16 8 -26 18 -26 25 -130 86 -182 106 -25 10 -47 21 -50 25 -7 9 -114 38
-209 56 -86 17 -361 19 -426 4z m411 -204 c49 -9 107 -24 129 -35 22 -10 64
-28 93 -40 28 -13 52 -26 52 -29 0 -4 17 -15 37 -25 43 -20 49 -25 160 -135
45 -45 85 -90 88 -101 3 -11 11 -20 16 -20 5 0 22 -26 37 -57 15 -32 32 -63
37 -69 6 -6 21 -47 34 -90 13 -43 27 -88 32 -99 11 -26 29 -147 29 -203 0 -88
55 -133 134 -111 52 14 70 61 62 163 -8 110 -27 226 -36 226 -4 0 -10 11 -12
25 -5 22 -1 25 29 31 70 13 354 -21 373 -45 3 -3 31 -15 64 -26 32 -10 64 -24
70 -30 6 -6 32 -22 59 -35 26 -13 47 -26 47 -30 0 -3 15 -14 33 -25 37 -22
168 -153 214 -218 18 -24 38 -58 44 -75 6 -18 15 -32 21 -32 5 0 6 -4 3 -10
-3 -5 -2 -10 3 -10 4 0 19 -30 31 -67 13 -38 29 -81 36 -98 20 -46 38 -221 31
-305 -8 -87 -26 -193 -36 -200 -3 -3 -15 -34 -25 -69 -10 -35 -24 -69 -29 -75
-6 -6 -24 -37 -40 -68 -16 -31 -35 -59 -42 -62 -8 -3 -14 -11 -14 -19 0 -13
-114 -135 -171 -183 -43 -37 -151 -103 -188 -115 -20 -7 -38 -15 -41 -19 -7
-9 -95 -37 -145 -46 -22 -4 -43 -11 -46 -16 -17 -26 -349 -20 -349 6 0 8 -12
12 -30 11 -16 -1 -27 2 -24 7 3 4 -4 8 -15 8 -27 0 -114 30 -122 42 -8 12
-111 21 -124 11 -15 -12 -55 -90 -55 -108 0 -26 31 -65 64 -82 17 -9 33 -19
36 -23 3 -3 43 -17 90 -30 47 -13 90 -27 95 -31 6 -4 35 -11 65 -14 107 -12
95 24 92 -290 l-3 -275 -209 0 -210 0 0 151 0 150 -28 30 c-31 34 -71 40 -120
20 -41 -17 -52 -63 -52 -220 l0 -131 -205 0 -205 0 0 139 c0 76 -5 152 -11
169 -17 48 -92 70 -144 42 -36 -19 -45 -60 -45 -211 l0 -139 -204 0 -204 0 -4
148 c-2 91 -8 155 -16 169 -30 54 -109 62 -154 15 l-28 -31 0 -150 0 -151
-195 0 -195 0 0 274 0 274 28 6 c15 3 52 8 82 12 30 3 61 10 70 15 8 5 48 18
88 29 71 21 169 70 184 94 12 17 9 75 -4 99 -20 37 -38 49 -81 54 -33 4 -47 0
-64 -16 -22 -20 -148 -61 -189 -61 -12 0 -24 -6 -26 -12 -6 -17 -335 -19 -346
-3 -4 6 -36 16 -72 24 -118 23 -277 110 -396 217 -57 50 -174 190 -174 207 0
3 -11 22 -24 42 -14 20 -32 59 -42 88 -9 29 -20 57 -25 63 -22 28 -42 166 -42
294 0 128 22 286 42 300 4 3 18 33 31 68 13 35 28 69 34 75 6 7 20 30 30 52
11 22 28 49 37 60 56 65 96 109 112 123 10 10 34 31 53 49 20 18 44 35 55 38
10 4 19 11 19 16 0 5 21 19 48 32 26 12 53 27 60 34 7 7 38 20 70 30 31 10 59
21 62 25 17 23 268 54 359 43 54 -6 58 -9 53 -28 -3 -12 -8 -26 -12 -32 -10
-13 -27 -127 -35 -228 -7 -98 10 -142 61 -156 48 -13 101 3 118 37 7 15 16 67
20 117 8 102 21 172 39 215 4 8 16 42 27 75 11 32 24 61 28 65 4 3 19 31 34
63 15 31 32 57 37 57 5 0 12 8 16 19 6 19 127 148 179 190 16 13 45 33 65 44
20 12 42 27 49 34 7 7 17 13 22 13 5 0 41 15 82 33 40 19 100 39 133 45 33 6
69 13 80 16 53 10 281 5 361 -9z m894 -3541 c-4 -109 -7 -127 -24 -140 -17
-12 -183 -14 -1090 -14 l-1070 0 -23 22 c-22 20 -23 29 -23 140 l0 118 1118 0
1117 0 -5 -126z"/>
<path d="M3238 4315 c-33 -18 -48 -44 -48 -82 0 -51 11 -70 53 -93 23 -13 44
-26 47 -30 3 -4 52 -33 110 -64 157 -86 204 -113 216 -124 6 -6 36 -23 65 -37
30 -15 56 -30 59 -34 3 -3 25 -16 50 -29 140 -72 187 -107 200 -151 9 -32 5
-40 -72 -178 l-41 -72 -51 26 c-28 14 -53 28 -56 32 -3 3 -25 16 -50 29 -63
32 -143 78 -156 90 -6 6 -36 23 -65 37 -30 15 -56 31 -59 34 -3 4 -23 16 -45
28 -72 37 -160 86 -165 93 -3 4 -28 19 -57 33 -28 15 -54 31 -57 36 -11 18
-77 33 -112 26 -25 -4 -41 -15 -54 -38 -38 -62 -20 -113 54 -153 28 -15 53
-31 56 -34 3 -4 25 -18 50 -30 25 -12 47 -25 50 -29 3 -3 25 -16 50 -29 25
-13 74 -40 110 -62 36 -21 88 -51 115 -66 28 -15 52 -30 55 -34 3 -4 25 -17
50 -29 56 -27 141 -76 157 -90 7 -6 27 -18 46 -27 l35 -17 -21 -36 c-12 -20
-25 -38 -29 -41 -4 -3 -16 -26 -28 -52 -11 -25 -36 -60 -56 -78 -30 -26 -42
-31 -67 -26 -17 4 -33 10 -37 14 -3 4 -30 20 -60 35 -71 36 -152 83 -166 95
-6 6 -31 20 -55 32 -24 13 -46 26 -49 30 -3 4 -25 17 -50 28 -25 12 -74 39
-110 61 -36 22 -87 52 -114 67 -27 14 -56 32 -63 40 -21 20 -88 38 -117 30
-46 -11 -66 -41 -66 -94 0 -54 16 -75 80 -107 19 -10 37 -21 40 -25 3 -4 25
-18 50 -30 25 -12 47 -26 50 -30 3 -4 25 -17 50 -29 25 -12 74 -39 110 -61 36
-21 87 -51 114 -65 27 -15 54 -31 60 -36 13 -11 71 -43 166 -90 36 -18 68 -37
72 -43 9 -14 206 -15 216 -1 4 6 20 17 37 25 39 20 105 88 105 109 0 11 3 12
8 4 4 -6 28 -21 52 -33 25 -11 74 -38 110 -60 36 -21 88 -51 115 -66 28 -15
52 -30 55 -35 3 -4 22 -15 42 -23 20 -9 42 -21 50 -28 7 -7 38 -26 68 -41 71
-36 152 -83 166 -95 6 -6 31 -20 54 -32 42 -21 70 -43 70 -54 0 -2 -8 -12 -17
-22 -15 -14 -18 -36 -18 -116 0 -62 4 -101 11 -106 6 -4 20 -25 32 -47 43 -85
134 -134 252 -134 71 -1 80 2 188 55 105 53 114 55 143 44 17 -7 36 -19 43
-25 7 -7 44 -27 83 -44 97 -42 198 -44 276 -5 106 54 167 150 167 264 -1 56
-15 121 -29 130 -17 10 18 42 70 65 24 11 46 22 49 26 3 3 28 18 55 33 171 91
179 99 172 170 -5 54 -21 72 -73 82 -22 4 -45 -1 -75 -16 -100 -49 -143 -73
-154 -84 -7 -6 -32 -20 -56 -31 -24 -11 -46 -23 -49 -27 -3 -4 -29 -18 -59
-32 l-53 -24 -52 29 c-28 16 -70 39 -93 51 -24 12 -43 28 -43 36 0 7 21 23 48
34 26 11 49 24 52 28 3 4 29 20 59 35 29 14 59 31 65 37 13 12 93 58 156 90
25 13 47 26 50 29 3 4 29 19 59 34 30 15 60 32 66 39 7 6 31 20 54 30 22 11
41 22 41 26 0 4 24 17 53 31 28 13 54 27 57 31 5 6 31 21 165 94 28 14 52 29
55 33 3 3 22 17 42 31 41 27 48 43 48 111 0 131 106 263 280 348 90 45 178 64
295 64 161 1 243 -40 296 -149 29 -62 23 -155 -16 -237 -47 -101 -164 -230
-245 -272 -18 -10 -40 -24 -47 -31 -8 -7 -39 -21 -71 -31 -31 -10 -60 -22 -64
-27 -9 -14 -197 -14 -206 0 -11 16 -94 44 -130 44 -31 0 -82 -20 -106 -42 -15
-13 -100 -62 -163 -93 -80 -40 -113 -78 -113 -128 0 -36 5 -45 33 -64 18 -13
48 -23 65 -23 32 0 123 40 147 64 7 6 32 20 56 31 24 11 50 26 58 33 16 15 80
10 91 -7 13 -21 147 -33 238 -21 48 6 91 15 97 19 5 4 39 18 75 31 36 12 67
26 70 30 3 4 25 18 50 30 78 40 200 151 272 248 31 42 82 136 93 172 1 3 6 14
11 25 5 11 9 84 9 163 0 116 -3 145 -15 152 -8 5 -10 10 -5 10 7 0 7 3 0 8 -5
4 -19 25 -30 46 -26 51 -96 119 -161 156 -83 48 -168 63 -324 57 -144 -5 -234
-24 -325 -70 -27 -13 -60 -27 -72 -31 -13 -4 -23 -11 -23 -16 0 -5 -15 -17
-32 -26 -28 -14 -95 -66 -121 -94 -48 -50 -69 -76 -84 -103 -10 -18 -23 -39
-30 -47 -16 -21 -40 -96 -47 -151 -6 -40 -11 -49 -36 -59 -17 -7 -30 -16 -30
-19 0 -4 -27 -20 -60 -36 -33 -16 -60 -32 -60 -35 0 -4 -24 -17 -52 -31 -29
-13 -55 -27 -58 -31 -3 -3 -30 -20 -60 -36 -30 -17 -77 -42 -104 -57 -27 -15
-55 -32 -61 -39 -7 -6 -32 -20 -56 -31 -24 -11 -47 -24 -51 -30 -4 -7 -26 -20
-50 -30 -24 -11 -45 -22 -48 -26 -3 -3 -29 -19 -59 -34 -29 -14 -59 -31 -65
-37 -13 -12 -93 -58 -156 -90 -25 -13 -47 -26 -50 -29 -12 -14 -41 -17 -52 -6
-7 7 -37 23 -65 36 -29 14 -53 27 -53 31 0 4 -19 15 -41 26 -23 10 -47 24 -54
30 -6 7 -36 24 -66 39 -30 15 -56 30 -59 34 -3 3 -25 16 -50 29 -63 32 -143
78 -156 90 -6 6 -36 23 -65 37 -30 15 -56 30 -59 34 -3 3 -25 16 -50 29 -63
32 -143 78 -156 90 -6 6 -33 22 -60 36 -87 45 -88 48 -65 92 32 60 30 180 -5
242 -25 44 -98 122 -115 122 -4 0 -14 6 -21 14 -8 7 -34 23 -58 35 -56 27
-141 76 -156 89 -6 6 -36 23 -65 37 -30 15 -56 31 -59 35 -3 4 -25 18 -50 30
-25 12 -47 26 -50 29 -3 3 -29 17 -57 30 -29 14 -53 27 -53 31 0 3 -17 14 -37
24 -21 10 -54 28 -73 41 -47 31 -98 39 -132 20z m856 -1020 c21 -14 56 -35 79
-46 23 -12 44 -24 47 -28 3 -3 25 -16 50 -29 63 -32 143 -78 156 -90 6 -6 36
-23 65 -37 30 -15 56 -31 59 -35 3 -4 23 -15 45 -24 22 -9 45 -22 50 -29 6 -7
34 -23 63 -36 28 -14 52 -27 52 -31 0 -3 27 -19 60 -35 33 -16 60 -32 60 -36
0 -4 15 -12 33 -18 19 -7 42 -19 53 -29 10 -9 43 -28 72 -41 28 -14 52 -27 52
-31 0 -3 27 -19 60 -35 33 -16 60 -32 60 -36 0 -4 8 -10 19 -14 21 -6 170 -89
187 -104 6 -5 34 -21 63 -35 28 -15 51 -30 51 -34 0 -4 14 -15 30 -24 26 -15
30 -22 30 -63 0 -92 -79 -121 -190 -69 -30 14 -57 29 -60 33 -3 5 -25 19 -50
31 -25 12 -47 26 -50 30 -3 4 -25 17 -50 29 -25 12 -74 39 -110 61 -36 21 -87
51 -115 66 -27 15 -52 30 -55 34 -3 4 -21 15 -40 24 -19 9 -69 36 -110 60 -41
25 -97 57 -125 72 -27 15 -52 30 -55 34 -3 4 -25 18 -50 30 -25 12 -47 25 -50
29 -3 3 -30 19 -60 34 -71 36 -152 83 -166 95 -6 6 -31 20 -55 32 -24 13 -46
26 -49 30 -3 4 -30 19 -60 34 -96 47 -135 74 -132 93 2 10 14 34 27 53 13 19
31 52 41 73 10 20 21 37 24 37 4 0 24 -11 44 -25z m738 -889 c8 -7 34 -24 59
-36 24 -13 46 -26 49 -31 3 -4 17 -12 30 -18 25 -9 25 -9 -12 -25 -90 -38
-168 -5 -168 72 0 53 15 66 42 38z"/>
</g>
</svg>
