<?xml version="1.0"?>
<svg width="122.61" height="122.88" xmlns="http://www.w3.org/2000/svg" xmlns:svg="http://www.w3.org/2000/svg" data-name="Layer 1">
 <defs>
  <style>.cls-1{fill-rule:evenodd;}</style>
 </defs>
 <title>qr-code-scan</title>
 <g class="layer">
  <title>Layer 1</title>
  <path class="cls-1" d="m26.68,26.77l25.23,0l0,25.12l-25.23,0l0,-25.12zm8.99,-26.77l-12.6,0a22.72,22.72 0 0 0 -8.77,1.75a23.13,23.13 0 0 0 -7.49,5l0,0a23.16,23.16 0 0 0 -5,7.49a22.77,22.77 0 0 0 -1.81,8.83l0,15.57l10.23,0l0,-15.57a12.9,12.9 0 0 1 1,-4.9a12.71,12.71 0 0 1 2.77,-4.17l0,0a12.83,12.83 0 0 1 9.07,-3.75l12.6,0l0,-10.25zm63.87,0l-8.23,0l0,10.23l8.23,0a12.94,12.94 0 0 1 4.9,1a13.16,13.16 0 0 1 4.17,2.77l0.35,0.36l0,0a13.07,13.07 0 0 1 2.45,3.82a12.67,12.67 0 0 1 1,4.89l0,15.57l10.23,0l0,-15.57a22.95,22.95 0 0 0 -6.42,-15.93l0,0l-0.37,-0.37a23.16,23.16 0 0 0 -7.49,-5a22.77,22.77 0 0 0 -8.82,-1.77zm23.07,99.81l0,-17.29l-10.23,0l0,17.29a12.67,12.67 0 0 1 -1,4.89a13.08,13.08 0 0 1 -2.8,4.17a12.8,12.8 0 0 1 -9.06,3.78l-8.21,0l0,10.23l8.23,0a23,23 0 0 0 16.29,-6.78a23.34,23.34 0 0 0 5,-7.49a23,23 0 0 0 1.75,-8.8l0.03,0zm-99.54,23.07l12.6,0l0,-10.23l-12.6,0a12.8,12.8 0 0 1 -9.07,-3.78l-0.26,-0.24a12.83,12.83 0 0 1 -2.61,-4.08a12.7,12.7 0 0 1 -0.91,-4.74l0,-17.29l-10.22,0l0,17.29a22.64,22.64 0 0 0 1.67,8.57a22.86,22.86 0 0 0 4.79,7.38l0.31,0.35a23.2,23.2 0 0 0 7.5,5a22.84,22.84 0 0 0 8.8,1.75l0,0.02zm66.52,-33.1l6.41,0l0,6.33l-6.41,0l0,-6.33zm-12.36,0l6.44,0l0,6l-12.87,0l0,-12.31l6.2,0l0,-6.25l6.34,0l0,-12.46l6.46,0l0,6.12l6.12,0l0,6.33l-6.12,0l0,6.33l-12.57,0l0,6.23l0,0.01zm-19.09,-12.66l6.23,0l0,-6.33l-6,0l0,-6.33l6,0l0,-6.33l-6.13,0l0,6.33l-6.44,0l0,-6.33l6.33,0l0,-18.8l6.43,0l0,18.79l6.23,0l0,6.33l6.13,0l0,-6.33l6.43,0l0,6.33l-6.12,0l0,6.33l-6.43,0l0,12.46l-6.23,0l0,12.57l-6.43,0l0,-18.69zm31.35,-19l6.43,0l0,6.33l-6.43,0l0,-6.33zm-50.24,0l6.43,0l0,6.33l-6.43,0l0,-6.33zm-12.57,0l6.43,0l0,6.33l-6.43,0l0,-6.33zm31.46,-31.35l6.43,0l0,6.33l-6.43,0l0,-6.33zm-31.56,44.11l25.22,0l0,25.12l-25.22,0l0,-25.12zm6.13,6.12l13,0l0,12.91l-13,0l0,-12.91zm38,-50.22l25.21,0l0,25.11l-25.22,0l0,-25.12l0.01,0.01zm6.13,6.1l13,0l0,12.91l-13,0l0,-12.92l0,0.01zm-44,0l13,0l0,12.91l-13,0l0,-12.92l0,0.01z" fill="#ff0000" id="svg_1"/>
 </g>
</svg>